GRF
version=1
nRows=15
nColumns=19
inDegrees=no
endheader
time	1_ground_force_vx	1_ground_force_vy	1_ground_force_vz	1_ground_force_px	1_ground_force_py	1_ground_force_pz	1_ground_torque_x	1_ground_torque_y	1_ground_torque_z	2_ground_force_vx	2_ground_force_vy	2_ground_force_vz	2_ground_force_px	2_ground_force_py	2_ground_force_pz	2_ground_torque_x	2_ground_torque_y	2_ground_torque_z
      0.89000000	     -2.13281943	    734.31417269	     -3.10195536	      0.14747412	      0.00000000	     -0.41084388	      0.00000000	      0.04983332	      0.00000000	      0.00000000	      0.00000000	      0.00000000	      0.00000000	      0.00000000	      0.00000000	      0.00000000	      0.00000000	      0.00000000
      0.89100000	     -2.14539982	    734.29635278	     -3.10933286	      0.14748709	      0.00000000	     -0.41083288	      0.00000000	      0.04689004	      0.00000000	      0.00000000	      0.00000000	      0.00000000	      0.00000000	      0.00000000	      0.00000000	      0.00000000	      0.00000000	      0.00000000
      0.89200000	     -2.16447100	    734.37756234	     -3.11646497	      0.14749096	      0.00000000	     -0.41080585	     -0.00000000	      0.03901610	     -0.00000000	      0.00000000	      0.00000000	      0.00000000	      0.00000000	      0.00000000	      0.00000000	      0.00000000	      0.00000000	      0.00000000
      0.89300000	     -2.18950886	    734.53989970	     -3.11942249	      0.14748865	      0.00000000	     -0.41076783	     -0.00000000	      0.03008763	     -0.00000000	      0.00000000	      0.00000000	      0.00000000	      0.00000000	      0.00000000	      0.00000000	      0.00000000	      0.00000000	      0.00000000
      0.89400000	     -2.22301382	    734.73701118	     -3.11147908	      0.14749160	      0.00000000	     -0.41072694	     -0.00000000	      0.01946584	     -0.00000000	      0.00000000	      0.00000000	      0.00000000	      0.00000000	      0.00000000	      0.00000000	      0.00000000	      0.00000000	      0.00000000
      0.89500000	     -2.25864675	    734.93406079	     -3.10250417	      0.14749783	      0.00000000	     -0.41069936	     -0.00000000	      0.01037788	     -0.00000000	      0.00000000	      0.00000000	      0.00000000	      0.00000000	      0.00000000	      0.00000000	      0.00000000	      0.00000000	      0.00000000
      0.89600000	     -2.27980488	    735.09060412	     -3.10182647	      0.14751175	      0.00000000	     -0.41069189	     -0.00000000	      0.00352594	     -0.00000000	      0.00000000	      0.00000000	      0.00000000	      0.00000000	      0.00000000	      0.00000000	      0.00000000	      0.00000000	      0.00000000
      0.89700000	     -2.27876820	    735.24534583	     -3.10877523	      0.14752550	      0.00000000	     -0.41069543	     -0.00000000	     -0.00136347	     -0.00000000	      0.00000000	      0.00000000	      0.00000000	      0.00000000	      0.00000000	      0.00000000	      0.00000000	      0.00000000	      0.00000000
      0.89800000	     -2.26490056	    735.40425853	     -3.10286152	      0.14753757	      0.00000000	     -0.41070011	     -0.00000000	     -0.00522190	     -0.00000000	      0.00000000	      0.00000000	      0.00000000	      0.00000000	      0.00000000	      0.00000000	      0.00000000	      0.00000000	      0.00000000
      0.89900000	     -2.25026731	    735.56245229	     -3.08004884	      0.14754623	      0.00000000	     -0.41069507	     -0.00000000	     -0.00622703	     -0.00000000	      0.00000000	      0.00000000	      0.00000000	      0.00000000	      0.00000000	      0.00000000	      0.00000000	      0.00000000	      0.00000000
      0.90000000	     -2.23869353	    735.66903072	     -3.04350740	      0.14756113	      0.00000000	     -0.41068571	     -0.00000000	     -0.00634940	     -0.00000000	      0.00000000	      0.00000000	      0.00000000	      0.00000000	      0.00000000	      0.00000000	      0.00000000	      0.00000000	      0.00000000
      0.90100000	     -2.22332352	    735.71022961	     -3.00828556	      0.14758209	      0.00000000	     -0.41067384	     -0.00000000	     -0.00534615	     -0.00000000	      0.00000000	      0.00000000	      0.00000000	      0.00000000	      0.00000000	      0.00000000	      0.00000000	      0.00000000	      0.00000000
      0.90200000	     -2.20511283	    735.71596127	     -2.98283419	      0.14760932	      0.00000000	     -0.41065331	     -0.00000000	     -0.00408633	     -0.00000000	      0.00000000	      0.00000000	      0.00000000	      0.00000000	      0.00000000	      0.00000000	      0.00000000	      0.00000000	      0.00000000
      0.90300000	     -2.18692284	    735.71118232	     -2.95862231	      0.14763523	      0.00000000	     -0.41062591	     -0.00000000	     -0.00445897	     -0.00000000	      0.00000000	      0.00000000	      0.00000000	      0.00000000	      0.00000000	      0.00000000	      0.00000000	      0.00000000	      0.00000000
      0.90400000	     -2.17793460	    735.78015643	     -2.94428730	      0.14764815	      0.00000000	     -0.41059039	     -0.00000000	     -0.00546126	     -0.00000000	      0.00000000	      0.00000000	      0.00000000	      0.00000000	      0.00000000	      0.00000000	      0.00000000	      0.00000000	      0.00000000
